<svg xmlns="http://www.w3.org/2000/svg" width="18" height="18" viewBox="0 0 18 18">
    <g fill="none" fill-rule="evenodd">
        <path fill="#FFF" d="M-637-250H803V977H-637z"/>
        <path fill="#FFF" stroke="#E9ECEF" d="M-130-62.5a1.5 1.5 0 0 0-1.5 1.5v933a1.5 1.5 0 0 0 1.5 1.5h426a1.5 1.5 0 0 0 1.5-1.5V-61a1.5 1.5 0 0 0-1.5-1.5h-426z"/>
        <path fill="#FFF" stroke="#CED4DA" d="M-82-14.5a1.5 1.5 0 0 0-1.5 1.5v44a1.5 1.5 0 0 0 1.5 1.5h330a1.5 1.5 0 0 0 1.5-1.5v-44a1.5 1.5 0 0 0-1.5-1.5H-82z"/>
        <g fill-rule="nonzero">
            <path fill="#4267B2" d="M16.556.5H1.444a.944.944 0 0 0-.944.944v15.112c0 .521.423.944.944.944h8.137v-6.573H7.373V8.353h2.208V6.464c0-2.196 1.34-3.393 3.305-3.393a18.29 18.29 0 0 1 1.979.102v2.285H13.51c-1.065 0-1.273.508-1.273 1.252v1.638h2.548l-.33 2.574h-2.218V17.5h4.319a.944.944 0 0 0 .944-.944V1.444A.944.944 0 0 0 16.556.5z"/>
            <path fill="#FFF" d="M12.237 17.5v-6.573h2.217l.33-2.574h-2.547V6.714c0-.743.208-1.25 1.273-1.25h1.35V3.167a18.31 18.31 0 0 0-1.978-.102c-1.96 0-3.306 1.198-3.306 3.393v1.89H7.373v2.573h2.208V17.5h2.656z"/>
        </g>
    </g>
</svg>
