<svg xmlns="http://www.w3.org/2000/svg" width="24" height="24" viewBox="0 0 24 24">
    <g fill="none" fill-rule="evenodd">
        <g>
            <g>
                <path d="M0 0H24V24H0z" transform="translate(-16 -320) translate(16 320)"/>
                <g stroke="#495056" stroke-width="1.5">
                    <path d="M19.69.83l.299 8.005-7.013-3.207L19.69.83z" transform="translate(-16 -320) translate(16 320) translate(2 1)"/>
                    <path stroke-linecap="square" stroke-linejoin="round" d="M20 2L20 20" transform="translate(-16 -320) translate(16 320) translate(2 1)"/>
                    <path d="M12 21v-2.094c0-.536-.355-1.007-.87-1.154l-2.956-.845c-.227-.065-.396-.257-.43-.492l-.248-1.742c1.28-.586 2.103-1.864 2.104-3.272V9.752c.03-1.983-1.508-3.638-3.489-3.75-.974-.03-1.918.336-2.618 1.014C2.794 7.694 2.4 8.627 2.4 9.601v1.8c.001 1.408.823 2.686 2.104 3.272l-.249 1.742c-.033.235-.202.427-.43.492l-2.954.845C.355 17.899 0 18.37 0 18.906V21M20 21v-1.536c0-.393-.267-.738-.653-.846l-3.216-.62c-.171-.047-.297-.188-.322-.36l-.187-1.278c.96-.43 1.577-1.367 1.578-2.4v-1.208c.023-1.455-1.131-2.668-2.617-2.75-.73-.023-1.438.246-1.963.743-.524.497-.82 1.182-.82 1.896v1.32c0 1.032.617 1.97 1.578 2.399l-.187 1.278c-.025.172-.151.313-.322.36l-.858.24" transform="translate(-16 -320) translate(16 320) translate(2 1)"/>
                </g>
            </g>
        </g>
    </g>
</svg>
