<svg width="12" height="12" viewBox="0 0 12 12" fill="none" xmlns="http://www.w3.org/2000/svg">
<path d="M9.3 4.075L9.9875 3.3875L10.3313 3.73125C10.6062 4.00625 11.0188 4.00625 11.2937 3.73125C11.5687 3.45625 11.5687 3.04375 11.2937 2.76875L9.3 0.775C9.025 0.5 8.6125 0.5 8.3375 0.775C8.0625 1.05 8.0625 1.4625 8.3375 1.7375L8.68125 2.08125L7.99375 2.76875L5.93125 0.70625C5.65625 0.43125 5.24375 0.43125 4.96875 0.70625C4.69375 0.98125 4.69375 1.39375 4.96875 1.66875L6.1375 2.8375L2.0125 7.1C1.7375 7.375 1.7375 7.7875 2.0125 8.0625L2.5625 8.54375L0.70625 10.4C0.43125 10.675 0.43125 11.0875 0.70625 11.3625C0.98125 11.6375 1.39375 11.6375 1.66875 11.3625L3.525 9.50625L4.00625 9.9875C4.28125 10.2625 4.69375 10.2625 4.96875 9.9875L9.1625 5.79375L10.3313 6.9625C10.6062 7.2375 11.0188 7.2375 11.2937 6.9625C11.5687 6.6875 11.5687 6.275 11.2937 6L9.3 4.075Z" fill="#666D75"/>
</svg>
