<svg width="12" height="12" viewBox="0 0 12 12" fill="none" xmlns="http://www.w3.org/2000/svg">
<g clip-path="url(#clip0)">
<path d="M11.8225 5.12242L11.8105 5.11292L6.31051 0.612924C6.22119 0.539896 6.10938 0.5 5.99401 0.5C5.87864 0.5 5.76682 0.539896 5.67751 0.612924L0.177507 5.11292C0.0771698 5.19758 0.0141535 5.31831 0.0020647 5.44903C-0.0100241 5.57975 0.0297844 5.70999 0.112895 5.81161C0.196005 5.91323 0.315749 5.97809 0.446271 5.99218C0.576794 6.00627 0.707622 5.96847 0.810507 5.88692L1.49401 5.32792V10.9999C1.49401 11.1325 1.54669 11.2597 1.64045 11.3535C1.73422 11.4472 1.8614 11.4999 1.99401 11.4999H9.99401C10.1266 11.4999 10.2538 11.4472 10.3476 11.3535C10.4413 11.2597 10.494 11.1325 10.494 10.9999V5.32792L11.1775 5.88692C11.2789 5.97246 11.4101 6.01421 11.5423 6.00301C11.6744 5.9918 11.7967 5.92855 11.8823 5.82717C11.9678 5.7258 12.0095 5.59459 11.9983 5.46242C11.9871 5.33026 11.9239 5.20796 11.8225 5.12242ZM6.00001 3.99992C6.24723 3.99992 6.48891 4.07324 6.69447 4.21059C6.90003 4.34794 7.06025 4.54316 7.15486 4.77157C7.24947 4.99998 7.27422 5.25131 7.22599 5.49379C7.17776 5.73626 7.05871 5.95899 6.88389 6.13381C6.70907 6.30862 6.48635 6.42767 6.24387 6.47591C6.00139 6.52414 5.75006 6.49938 5.52165 6.40477C5.29324 6.31016 5.09802 6.14995 4.96067 5.94439C4.82332 5.73883 4.75001 5.49715 4.75001 5.24992C4.75001 4.9184 4.8817 4.60046 5.11612 4.36604C5.35054 4.13162 5.66849 3.99992 6.00001 3.99992ZM3.50001 9.99992C3.50001 9.33688 3.7634 8.701 4.23224 8.23216C4.70108 7.76332 5.33697 7.49992 6.00001 7.49992C6.66305 7.49992 7.29893 7.76332 7.76777 8.23216C8.23662 8.701 8.50001 9.33688 8.50001 9.99992H3.50001Z" fill="#666D75"/>
</g>
<defs>
<clipPath id="clip0">
<rect width="12" height="12" fill="white"/>
</clipPath>
</defs>
</svg>
