<svg xmlns="http://www.w3.org/2000/svg" width="18" height="18" viewBox="0 0 18 18">
    <g fill="none" fill-rule="evenodd">
        <path fill="#FFF" d="M-650-306H790V921H-650z"/>
        <path fill="#FFF" stroke="#E9ECEF" d="M-143-118.5a1.5 1.5 0 0 0-1.5 1.5v933a1.5 1.5 0 0 0 1.5 1.5h426a1.5 1.5 0 0 0 1.5-1.5v-933a1.5 1.5 0 0 0-1.5-1.5h-426z"/>
        <g transform="translate(-97 -15)">
            <rect width="333" height="47" x=".5" y=".5" fill="#FFF" stroke="#CED4DA" rx="2"/>
            <path fill="#1EC800" d="M113.448 15H98.552c-.854 0-1.552.698-1.552 1.552v14.896c0 .854.698 1.552 1.552 1.552h14.896c.854 0 1.552-.698 1.552-1.552V16.552c0-.854-.698-1.552-1.552-1.552"/>
            <path fill="#FFF" d="M107.403 20v4.036L104.638 20h-2.988v8h2.978v-4.036L107.394 28h2.987v-8z"/>
        </g>
    </g>
</svg>
