<svg xmlns="http://www.w3.org/2000/svg" xmlns:xlink="http://www.w3.org/1999/xlink" width="32" height="32" viewBox="0 0 32 32">
    <defs>
        <path id="prefix__a" d="M0 27.934L27.988 27.934 27.988 0.052 0 0.052z"/>
    </defs>
    <g fill="none" fill-rule="evenodd">
        <rect width="32" height="32" fill="#FAE100" rx="8"/>
        <g transform="translate(2 2)">
            <path fill="#381E1F" d="M13.994 6.052c-4.97 0-9 3.082-9 6.884 0 2.475 1.708 4.644 4.27 5.858-.188.68-.681 2.463-.78 2.844-.122.474.179.468.376.34.155-.1 2.467-1.62 3.464-2.276.54.078 1.1.118 1.67.118 4.97 0 9-3.082 9-6.884 0-3.802-4.03-6.884-9-6.884"/>
        </g>
    </g>
</svg>
