<?xml version="1.0" encoding="UTF-8"?>
<svg width="40px" height="40px" viewBox="0 0 40 40" version="1.1" xmlns="http://www.w3.org/2000/svg" xmlns:xlink="http://www.w3.org/1999/xlink">
    <title>ic_rentacar_40x40</title>
    <g id="Symbol" stroke="none" stroke-width="1" fill="none" fill-rule="evenodd">
        <g id="Verticals-Icon/10.-Rent-a-Car/40x40">
            <rect id="empty_space" fill-opacity="0" fill="#FFFFFF" x="0" y="0" width="40" height="40"></rect>
            <g id="ðŸ”£-ì•„ì´ì½˜">
                <rect id="empty_space" fill-opacity="0" fill="#FFFFFF" x="0" y="0" width="40" height="40"></rect>
                <g id="car-front" transform="translate(5.000000, 9.166667)" fill-rule="nonzero">
                    <path d="M6.04166667,24.1666667 L3.125,24.1666667 C2.31958438,24.1666667 1.66666667,23.5448403 1.66666667,22.7777778 L1.66666667,20 L7.5,20 L7.5,22.7777778 C7.5,23.5448403 6.84708229,24.1666667 6.04166667,24.1666667 Z" id="Path" fill="#10634C"></path>
                    <path d="M26.875,24.1666667 L23.9583333,24.1666667 C23.1529177,24.1666667 22.5,23.5448403 22.5,22.7777778 L22.5,20 L28.3333333,20 L28.3333333,22.7777778 C28.3333333,23.5448403 27.6804156,24.1666667 26.875,24.1666667 Z" id="Path" fill="#10634C"></path>
                    <path d="M26.842134,9.58333333 L3.15787261,9.58333333 C2.94649716,9.58333333 2.74764805,9.47771131 2.62429252,9.29889315 C2.50061462,9.12041042 2.46688429,8.89112232 2.53370022,8.68221935 L4.71555359,1.87207679 C5.07406094,0.75237381 6.07728677,0 7.21190105,0 L22.7881055,0 C23.9227198,0 24.9259456,0.75237381 25.2844464,1.8724122 L27.4662998,8.68221935 C27.5331157,8.89112232 27.4993854,9.12041042 27.3757075,9.29889315 C27.2523585,9.47771131 27.0535094,9.58333333 26.842134,9.58333333 Z" id="Path" fill="#33B893"></path>
                    <path d="M4.58333333,8.75 L6.38787294,2.63509292 C6.55871269,2.05576833 7.03663262,1.66666667 7.57732421,1.66666667 L22.4226758,1.66666667 C22.9633611,1.66666667 23.4412873,2.05576833 23.6121271,2.63509292 L25.4166667,8.75 L4.58333333,8.75 Z" id="Path" fill="#D7F6EE"></path>
                    <path d="M26.0869565,8.33333333 L3.91304348,8.33333333 C1.75192826,8.33333333 0,10.2521119 0,12.6190476 L0,18.3333333 L30,18.3333333 L30,12.6190476 C30,10.2521119 28.2480717,8.33333333 26.0869565,8.33333333 Z" id="Path" fill="#33B893"></path>
                    <circle id="Oval" fill="#FFFFFF" cx="4.375" cy="12.2916667" r="1.875"></circle>
                    <circle id="Oval" fill="#FFFFFF" cx="25.625" cy="12.2916667" r="1.875"></circle>
                    <path d="M29.3478261,20.8333333 L0.652173913,20.8333333 C0.291991304,20.8333333 0,20.4602333 0,20 L0,17.5 L30,17.5 L30,20 C30,20.4602333 29.7080087,20.8333333 29.3478261,20.8333333 Z" id="Path" fill="#1C9674"></path>
                </g>
            </g>
        </g>
    </g>
</svg>