<svg xmlns="http://www.w3.org/2000/svg" width="24" height="24" viewBox="0 0 24 24">
    <g fill="none" fill-rule="evenodd">
        <g>
            <g>
                <path d="M0 0H24V24H0z" transform="translate(-16 -424) translate(16 424)"/>
                <g stroke="#495056" stroke-linecap="square" stroke-width="1.5">
                    <path d="M17.623 11.105l-5.455-.455c.273-3.409-.59-4.273-.409-6.409.228-2.773 2.046-4.41 4-4.227h0c1.955.136 3.5 2.09 3.273 4.818-.227 2.727-1.409 6.273-1.409 6.273zM14.305 18.105h0c-1.864-.137-3.137-2-2.637-3.773l.273-.955 5.455.455.136 1c.182 1.818-1.364 3.454-3.227 3.273zM1.578 12.968l5.409-.545c-.319-3.41.5-4.273.272-6.41-.272-2.772-2.09-4.363-4.045-4.181h0C1.259 2.014-.241 4.014.032 6.696c.273 2.681 1.546 6.272 1.546 6.272zM4.987 19.923h0c1.863-.182 3.09-2.046 2.545-3.818l-.273-.955-5.409.5-.09 1c-.182 1.864 1.363 3.455 3.227 3.273z" transform="translate(-16 -424) translate(16 424) translate(2.422 2.032)"/>
                </g>
            </g>
        </g>
    </g>
</svg>
