<svg width="20" height="20" viewBox="0 0 20 20" fill="none" xmlns="http://www.w3.org/2000/svg">
<path d="M18.15 4.86598C17.9672 4.54632 17.665 4.31233 17.3097 4.21545C16.9545 4.11856 16.5753 4.16671 16.2555 4.34931L12.0597 6.75417L4.09721 4.3632L2.3611 5.37223L8.41179 8.84445H8.41527L5.27152 10.6444L3.19443 10.0563L1.67221 10.9278L3.93471 12.625C4.09619 12.746 4.28211 12.8304 4.47951 12.8722C4.67692 12.9141 4.88107 12.9124 5.07777 12.8674L8.1479 12.1653C8.21497 12.15 8.27935 12.1247 8.33888 12.0903L17.6333 6.76112C17.7917 6.67061 17.9307 6.5498 18.0424 6.40558C18.154 6.26135 18.2362 6.09654 18.2842 5.92056C18.3322 5.74458 18.345 5.56087 18.322 5.37992C18.299 5.19897 18.2405 5.02434 18.15 4.86598Z" fill="#666D75"/>
<path d="M17.6389 17.178H2.3611C2.17692 17.178 2.00029 17.1048 1.87005 16.9746C1.73982 16.8443 1.66666 16.6677 1.66666 16.4835C1.66666 16.2993 1.73982 16.1227 1.87005 15.9925C2.00029 15.8622 2.17692 15.7891 2.3611 15.7891H17.6389C17.8231 15.7891 17.9997 15.8622 18.1299 15.9925C18.2602 16.1227 18.3333 16.2993 18.3333 16.4835C18.3333 16.6677 18.2602 16.8443 18.1299 16.9746C17.9997 17.1048 17.8231 17.178 17.6389 17.178Z" fill="#666D75"/>
</svg>
