<svg width="20" height="20" viewBox="0 0 20 20" fill="none" xmlns="http://www.w3.org/2000/svg">
<g clip-path="url(#clip0)">
<path d="M19.7043 8.53754L19.6843 8.5217L10.5176 1.0217C10.3688 0.899989 10.1824 0.833496 9.99011 0.833496C9.79783 0.833496 9.61147 0.899989 9.46261 1.0217L0.295947 8.5217C0.128718 8.6628 0.023691 8.86401 0.0035429 9.08188C-0.0166052 9.29975 0.0497424 9.51681 0.18826 9.68618C0.326777 9.85555 0.52635 9.96365 0.743887 9.98713C0.961424 10.0106 1.17947 9.94761 1.35095 9.8117L2.49011 8.88004V18.3334C2.49011 18.5544 2.57791 18.7663 2.73419 18.9226C2.89047 19.0789 3.10243 19.1667 3.32345 19.1667H16.6568C16.8778 19.1667 17.0898 19.0789 17.246 18.9226C17.4023 18.7663 17.4901 18.5544 17.4901 18.3334V8.88004L18.6293 9.8117C18.7982 9.95426 19.0169 10.0239 19.2372 10.0052C19.4575 9.9865 19.6613 9.88108 19.8039 9.71212C19.9464 9.54315 20.016 9.32448 19.9973 9.1042C19.9787 8.88393 19.8732 8.68009 19.7043 8.53754V8.53754ZM10.0001 6.6667C10.4122 6.6667 10.8149 6.78889 11.1576 7.01781C11.5002 7.24673 11.7672 7.5721 11.9249 7.95278C12.0825 8.33346 12.1238 8.75235 12.0434 9.15647C11.963 9.5606 11.7646 9.93182 11.4733 10.2232C11.1819 10.5145 10.8107 10.713 10.4066 10.7933C10.0024 10.8737 9.58353 10.8325 9.20286 10.6748C8.82218 10.5171 8.4968 10.2501 8.26788 9.90747C8.03896 9.56487 7.91678 9.16208 7.91678 8.75004C7.91678 8.1975 8.13627 7.6676 8.52697 7.2769C8.91767 6.8862 9.44758 6.6667 10.0001 6.6667V6.6667ZM5.83345 16.6667C5.83345 15.5616 6.27243 14.5018 7.05383 13.7204C7.83524 12.939 8.89504 12.5 10.0001 12.5C11.1052 12.5 12.165 12.939 12.9464 13.7204C13.7278 14.5018 14.1668 15.5616 14.1668 16.6667H5.83345Z" fill="#666D75"/>
</g>
<defs>
<clipPath id="clip0">
<rect width="20" height="20" fill="white"/>
</clipPath>
</defs>
</svg>
