<svg width="20" height="20" viewBox="0 0 20 20" fill="none" xmlns="http://www.w3.org/2000/svg">
<path d="M3.86895 5.45946L5.31233 6.90283C5.73094 6.2716 6.27184 5.73069 6.90308 5.31208L5.4597 3.86871C5.66463 3.65653 5.77803 3.37235 5.77546 3.07738C5.7729 2.78241 5.65458 2.50025 5.446 2.29166C5.23741 2.08308 4.95525 1.96476 4.66028 1.9622C4.36531 1.95964 4.08113 2.07303 3.86895 2.27796L2.2782 3.86871C2.07328 4.08089 1.95988 4.36506 1.96244 4.66004C1.96501 4.95501 2.08332 5.23717 2.29191 5.44575C2.50049 5.65434 2.78266 5.77265 3.07763 5.77522C3.3726 5.77778 3.65678 5.66439 3.86895 5.45946Z" fill="#666D75"/>
<path d="M14.6878 6.90289L16.1312 5.45952C16.3433 5.66445 16.6275 5.77784 16.9225 5.77528C17.2175 5.77271 17.4996 5.6544 17.7082 5.44582C17.9168 5.23723 18.0351 4.95507 18.0377 4.6601C18.0402 4.36512 17.9268 4.08095 17.7219 3.86877L16.1312 2.27802C16.0274 2.17057 15.9033 2.08487 15.766 2.02591C15.6287 1.96695 15.4811 1.93591 15.3317 1.93461C15.1824 1.93331 15.0342 1.96178 14.896 2.01835C14.7577 2.07491 14.6321 2.15845 14.5265 2.26408C14.4208 2.3697 14.3373 2.49531 14.2807 2.63357C14.2242 2.77183 14.1957 2.91997 14.197 3.06935C14.1983 3.21872 14.2293 3.36635 14.2883 3.5036C14.3473 3.64085 14.433 3.76499 14.5404 3.86877V3.86877L13.097 5.31214C13.7283 5.73075 14.2692 6.27166 14.6878 6.90289V6.90289Z" fill="#666D75"/>
<path d="M16.1312 14.5405L14.6878 13.0972C14.2692 13.7284 13.7283 14.2693 13.097 14.6879L14.5404 16.1313C14.433 16.2351 14.3473 16.3592 14.2883 16.4965C14.2293 16.6337 14.1983 16.7813 14.197 16.9307C14.1957 17.0801 14.2242 17.2282 14.2807 17.3665C14.3373 17.5047 14.4208 17.6304 14.5265 17.736C14.6321 17.8416 14.7577 17.9252 14.896 17.9817C15.0342 18.0383 15.1824 18.0667 15.3317 18.0654C15.4811 18.0642 15.6287 18.0331 15.766 17.9742C15.9033 17.9152 16.0274 17.8295 16.1312 17.722L17.7219 16.1313C17.8294 16.0275 17.9151 15.9034 17.974 15.7661C18.033 15.6289 18.064 15.4812 18.0653 15.3319C18.0666 15.1825 18.0382 15.0344 17.9816 14.8961C17.925 14.7578 17.8415 14.6322 17.7359 14.5266C17.6302 14.421 17.5046 14.3374 17.3664 14.2809C17.2281 14.2243 17.08 14.1958 16.9306 14.1971C16.7812 14.1984 16.6336 14.2295 16.4963 14.2884C16.3591 14.3474 16.2349 14.4331 16.1312 14.5405Z" fill="#666D75"/>
<path d="M5.31196 13.0972L3.86859 14.5405C3.76481 14.4331 3.64067 14.3474 3.50342 14.2884C3.36616 14.2295 3.21854 14.1984 3.06916 14.1971C2.91979 14.1958 2.77165 14.2243 2.63339 14.2809C2.49513 14.3374 2.36952 14.421 2.26389 14.5266C2.15826 14.6322 2.07473 14.7578 2.01816 14.8961C1.9616 15.0344 1.93313 15.1825 1.93443 15.3319C1.93573 15.4812 1.96676 15.6289 2.02572 15.7661C2.08468 15.9034 2.17039 16.0275 2.27784 16.1313L3.86859 17.722C4.08076 17.927 4.36494 18.0404 4.65991 18.0378C4.95488 18.0352 5.23705 17.9169 5.44563 17.7083C5.65422 17.4998 5.77253 17.2176 5.77509 16.9226C5.77766 16.6276 5.66426 16.3435 5.45934 16.1313L6.90271 14.6879C6.27148 14.2693 5.73057 13.7284 5.31196 13.0972V13.0972Z" fill="#666D75"/>
<path d="M17.875 7.75C17.5766 7.75 17.2905 7.86853 17.0795 8.07951C16.8685 8.29048 16.75 8.57663 16.75 8.875H14.3414C14.1407 8.10082 13.7367 7.39438 13.1711 6.82886C12.6056 6.26334 11.8992 5.85931 11.125 5.65862V3.25C11.4234 3.25 11.7095 3.13147 11.9205 2.9205C12.1315 2.70952 12.25 2.42337 12.25 2.125C12.25 1.82663 12.1315 1.54048 11.9205 1.3295C11.7095 1.11853 11.4234 1 11.125 1H8.875C8.57663 1 8.29048 1.11853 8.07951 1.3295C7.86853 1.54048 7.75 1.82663 7.75 2.125C7.75 2.42337 7.86853 2.70952 8.07951 2.9205C8.29048 3.13147 8.57663 3.25 8.875 3.25V5.65862C8.10082 5.85931 7.39438 6.26334 6.82886 6.82886C6.26334 7.39438 5.85931 8.10082 5.65862 8.875H3.25C3.25 8.57663 3.13147 8.29048 2.9205 8.07951C2.70952 7.86853 2.42337 7.75 2.125 7.75C1.82663 7.75 1.54048 7.86853 1.3295 8.07951C1.11853 8.29048 1 8.57663 1 8.875L1 11.125C1 11.4234 1.11853 11.7095 1.3295 11.9205C1.54048 12.1315 1.82663 12.25 2.125 12.25C2.42337 12.25 2.70952 12.1315 2.9205 11.9205C3.13147 11.7095 3.25 11.4234 3.25 11.125H5.65862C5.85931 11.8992 6.26334 12.6056 6.82886 13.1711C7.39438 13.7367 8.10082 14.1407 8.875 14.3414V16.75C8.57663 16.75 8.29048 16.8685 8.07951 17.0795C7.86853 17.2905 7.75 17.5766 7.75 17.875C7.75 18.1734 7.86853 18.4595 8.07951 18.6705C8.29048 18.8815 8.57663 19 8.875 19H11.125C11.4234 19 11.7095 18.8815 11.9205 18.6705C12.1315 18.4595 12.25 18.1734 12.25 17.875C12.25 17.5766 12.1315 17.2905 11.9205 17.0795C11.7095 16.8685 11.4234 16.75 11.125 16.75V14.3414C11.8992 14.1407 12.6056 13.7367 13.1711 13.1711C13.7367 12.6056 14.1407 11.8992 14.3414 11.125H16.75C16.75 11.4234 16.8685 11.7095 17.0795 11.9205C17.2905 12.1315 17.5766 12.25 17.875 12.25C18.1734 12.25 18.4595 12.1315 18.6705 11.9205C18.8815 11.7095 19 11.4234 19 11.125V8.875C19 8.57663 18.8815 8.29048 18.6705 8.07951C18.4595 7.86853 18.1734 7.75 17.875 7.75ZM10 11.125C9.7775 11.125 9.55999 11.059 9.37498 10.9354C9.18998 10.8118 9.04578 10.6361 8.96064 10.4305C8.87549 10.225 8.85321 9.99875 8.89662 9.78052C8.94002 9.56229 9.04717 9.36184 9.20451 9.20451C9.36184 9.04717 9.56229 8.94002 9.78052 8.89662C9.99875 8.85321 10.225 8.87549 10.4305 8.96064C10.6361 9.04578 10.8118 9.18998 10.9354 9.37498C11.059 9.55999 11.125 9.7775 11.125 10C11.125 10.2984 11.0065 10.5845 10.7955 10.7955C10.5845 11.0065 10.2984 11.125 10 11.125V11.125Z" fill="#666D75"/>
</svg>
