<svg width="20" height="20" viewBox="0 0 20 20" fill="none" xmlns="http://www.w3.org/2000/svg">
<path fill-rule="evenodd" clip-rule="evenodd" d="M20 10C20 15.523 15.522 20 10 20C4.478 20 0 15.523 0 10C0 4.477 4.478 0 10 0C15.522 0 20 4.477 20 10Z" fill="#666D75"/>
<path d="M10.4168 14.515V8.48145H8.29126" stroke="white" stroke-width="1.25"/>
<path d="M7.62598 14.959H13.1328" stroke="white" stroke-width="1.25"/>
<path fill-rule="evenodd" clip-rule="evenodd" d="M11.0306 5.71571C11.0306 6.22932 10.6131 6.64431 10.0963 6.64431C9.57954 6.64431 9.16199 6.22932 9.16199 5.71571C9.16199 5.2021 9.57954 4.78711 10.0963 4.78711C10.6131 4.78711 11.0306 5.2021 11.0306 5.71571Z" fill="white"/>
</svg>
