<svg width="20" height="20" viewBox="0 0 20 20" fill="none" xmlns="http://www.w3.org/2000/svg">
<path d="M3.25 5.5C4.49264 5.5 5.5 4.49264 5.5 3.25C5.5 2.00736 4.49264 1 3.25 1C2.00736 1 1 2.00736 1 3.25C1 4.49264 2.00736 5.5 3.25 5.5Z" fill="#666D75"/>
<path d="M3.25 12.25C4.49264 12.25 5.5 11.2426 5.5 10C5.5 8.75736 4.49264 7.75 3.25 7.75C2.00736 7.75 1 8.75736 1 10C1 11.2426 2.00736 12.25 3.25 12.25Z" fill="#666D75"/>
<path d="M3.25 19C4.49264 19 5.5 17.9926 5.5 16.75C5.5 15.5074 4.49264 14.5 3.25 14.5C2.00736 14.5 1 15.5074 1 16.75C1 17.9926 2.00736 19 3.25 19Z" fill="#666D75"/>
<path d="M19 2.125H7.75V4.375H19V2.125Z" fill="#666D75"/>
<path d="M19 8.875H7.75V11.125H19V8.875Z" fill="#666D75"/>
<path d="M19 15.625H7.75V17.875H19V15.625Z" fill="#666D75"/>
</svg>
