<svg width="20" height="20" viewBox="0 0 20 20" fill="none" xmlns="http://www.w3.org/2000/svg">
<path d="M17.1861 9.97236L12.4469 9.1205L7.90414 2.20192L5.93422 1.86035L8.3273 8.38204L4.7802 7.74384L3.57294 5.96752L1.85263 5.65637L2.49222 8.39864C2.53791 8.59439 2.62574 8.77783 2.74957 8.93617C2.8734 9.09452 3.03027 9.22396 3.20924 9.31549L6.0006 10.7447C6.06129 10.7759 6.12632 10.7978 6.19351 10.8097L16.6938 12.6939C16.8731 12.7278 17.0574 12.7258 17.2359 12.6881C17.4145 12.6505 17.5839 12.5778 17.7342 12.4744C17.8846 12.3709 18.013 12.2388 18.112 12.0855C18.2111 11.9322 18.2788 11.7608 18.3113 11.5812C18.3437 11.4016 18.3404 11.2174 18.3013 11.0391C18.2622 10.8608 18.1883 10.692 18.0837 10.5425C17.9791 10.3929 17.8459 10.2655 17.6919 10.1677C17.5378 10.0698 17.3659 10.0035 17.1861 9.97236Z" fill="#666D75"/>
<path d="M17.6092 17.5562H2.39747C2.21409 17.5562 2.03821 17.4834 1.90854 17.3537C1.77887 17.224 1.70602 17.0482 1.70602 16.8648C1.70602 16.6814 1.77887 16.5055 1.90854 16.3759C2.03821 16.2462 2.21409 16.1733 2.39747 16.1733H17.6092C17.7926 16.1733 17.9685 16.2462 18.0981 16.3759C18.2278 16.5055 18.3007 16.6814 18.3007 16.8648C18.3007 17.0482 18.2278 17.224 18.0981 17.3537C17.9685 17.4834 17.7926 17.5562 17.6092 17.5562Z" fill="#666D75"/>
</svg>
